<svg width="175" height="78" fill="none" xmlns="http://www.w3.org/2000/svg"><path d="M71.86 44l3.808-18.032h13.3l-.728 3.472h-8.792l-.812 3.78h7.756l-.728 3.528h-7.756l-.812 3.78h8.792L85.16 44h-13.3zm42.667.28c-1.531 0-2.865-.29-4.004-.868-1.12-.597-1.932-1.428-2.436-2.492-.504-1.083-.607-2.343-.308-3.78l2.352-11.172h4.508l-2.268 10.752c-.261 1.25-.177 2.184.252 2.8.448.616 1.353.924 2.716.924 1.381 0 2.427-.308 3.136-.924.709-.616 1.195-1.55 1.456-2.8l2.268-10.752h4.508l-2.352 11.172c-.523 2.427-1.624 4.228-3.304 5.404-1.68 1.157-3.855 1.736-6.524 1.736zm11.384-.28l3.808-18.032h8.624c1.4 0 2.52.29 3.36.868a4.233 4.233 0 011.736 2.324c.317.97.355 2.053.112 3.248-.373 1.941-1.195 3.481-2.464 4.62-1.269 1.12-2.987 1.68-5.152 1.68h-4.396L130.419 44h-4.508zm6.356-8.764h3.248c1.101 0 1.913-.261 2.436-.784.523-.523.868-1.213 1.036-2.072.205-1.045.159-1.792-.14-2.24-.28-.467-.933-.7-1.96-.7h-3.388l-1.232 5.796zM163.9 44.28c-1.194 0-2.296-.093-3.304-.28-.989-.168-1.82-.42-2.492-.756l.812-3.836a13.62 13.62 0 002.548.868c.952.224 1.876.336 2.772.336 1.12 0 1.979-.103 2.576-.308.598-.205.971-.653 1.12-1.344.094-.467.038-.84-.168-1.12-.205-.28-.597-.523-1.176-.728a31.083 31.083 0 00-2.296-.784c-1.736-.541-2.893-1.204-3.472-1.988-.56-.803-.69-1.913-.392-3.332.374-1.717 1.27-3.033 2.688-3.948 1.438-.915 3.36-1.372 5.768-1.372 1.046 0 2.044.084 2.996.252.952.15 1.718.327 2.296.532l-.84 3.864a11.212 11.212 0 00-2.296-.7c-.765-.15-1.53-.224-2.296-.224-1.008 0-1.848.093-2.52.28-.653.187-1.054.616-1.204 1.288-.074.392-.028.71.14.952.168.224.504.43 1.008.616.523.187 1.232.41 2.128.672 1.4.392 2.427.868 3.08 1.428.672.541 1.083 1.176 1.232 1.904.15.71.131 1.512-.056 2.408-.336 1.587-1.232 2.875-2.688 3.864-1.437.97-3.425 1.456-5.964 1.456z" fill="#100E0E"/><path d="M87.617 44l3.808-18.032h7.812c1.661 0 3.061.308 4.2.924 1.138.616 1.922 1.596 2.352 2.94.429 1.344.42 3.099-.028 5.264-.43 2.053-1.046 3.743-1.848 5.068-.803 1.307-1.867 2.277-3.192 2.912-1.307.616-2.95.924-4.928.924h-8.176zm5.236-3.472h2.688c1.1 0 2.006-.14 2.716-.42.709-.299 1.288-.84 1.736-1.624.466-.784.858-1.913 1.176-3.388.317-1.493.448-2.641.392-3.444-.056-.821-.374-1.39-.952-1.708-.56-.336-1.466-.504-2.716-.504h-2.688l-2.352 11.088zM143.17 44l3.808-18.032h4.508l-3.08 14.56h8.512L156.191 44h-13.02zM22.902 23.734c2.635-2.635 8.346-8.454 16.033-5.597 5.864 2.175 18.227 7.356 26.35 9.773l1.907-.362a34.3 34.3 0 10-2.972 26.494c-10.926-.169-13.591-8.52-16.152-6.934-.891.554-2.848 1.807-5.17 3.016l2.634 3.15c5.206 6.503-1.213 10.753-1.213 10.753l-1.63-1.833a9.694 9.694 0 01-3.289 4.131l-2.595-2.922c-.39.385-.81.738-1.258 1.055l-7.925-8.916 1.981-7.687.6.238c1.778-5.285 11.035-12.952 13.789-15.141l-.882-.466H32.461s-.55 2.086-5.16 5.161c5.482 15.077-6.157 17.51-6.157 17.51s-3.71-13.265-5.706-18.228c-1.947-4.859 4.83-10.56 7.464-13.195z" fill="#179BD7"/><path d="M39.792 51.595l-.659.267.416.495.243-.762z" fill="#E56031" stroke="#E56031" stroke-miterlimit="10"/><path d="M22.956 43.442c5.602 8.916 10.709 3.79 10.709 3.79l6.255-17.955-10.208-.99-7.43 12.02.674 3.135z" fill="#1C1C1C" stroke="#fff" stroke-miterlimit="10"/><mask id="a" fill="#fff"><path d="M70.664 26.894l-5.38 1.02c-8.122-2.417-20.485-7.597-26.35-9.772-7.686-2.858-13.397 2.972-16.032 5.597-2.635 2.625-9.41 8.336-7.464 13.175 1.981 4.953 5.706 18.227 5.706 18.227s11.64-2.412 6.151-17.454c4.611-3.076 5.161-5.161 5.161-5.161h10.65L72.08 47.91"/></mask><path d="M70.664 26.894l-5.38 1.02c-8.122-2.417-20.485-7.597-26.35-9.772-7.686-2.858-13.397 2.972-16.032 5.597-2.635 2.625-9.41 8.336-7.464 13.175 1.981 4.953 5.706 18.227 5.706 18.227s11.64-2.412 6.151-17.454c4.611-3.076 5.161-5.161 5.161-5.161h10.65L72.08 47.91" fill="#fff"/><path d="M70.85 27.877a1 1 0 00-.373-1.965l.373 1.965zm-5.565.038l-.285.958a1 1 0 00.471.024l-.186-.982zm-26.35-9.773l-.349.938h.001l.348-.938zM15.438 36.914l.928-.371v-.002l-.928.373zm5.706 18.227l-.963.27a1 1 0 001.166.71l-.203-.98zm6.151-17.454l-.555-.832a1 1 0 00-.384 1.175l.94-.343zm5.161-5.161v-1a1 1 0 00-.967.745l.967.255zm10.65 0l.468-.884a1 1 0 00-.469-.116v1zM71.61 48.793a1 1 0 00.938-1.767l-.938 1.767zm-1.134-22.881l-5.379 1.02.373 1.965 5.379-1.02-.373-1.965zm-4.907 1.044c-8.084-2.406-20.345-7.548-26.287-9.751l-.696 1.875c5.786 2.145 18.251 7.365 26.412 9.793l.57-1.917zm-26.287-9.751c-4.171-1.55-7.82-.732-10.724.794-2.871 1.509-5.057 3.73-6.363 5.032l1.412 1.417c1.329-1.325 3.316-3.33 5.881-4.678 2.531-1.33 5.582-1.997 9.097-.69l.697-1.875zm-17.087 5.826c-1.259 1.254-3.706 3.427-5.543 5.863-1.801 2.39-3.332 5.436-2.143 8.393l1.856-.746c-.758-1.882.126-4.11 1.884-6.443 1.724-2.285 3.982-4.28 5.358-5.65l-1.412-1.417zM14.51 37.286c.971 2.427 2.386 6.94 3.567 10.886a497.884 497.884 0 011.942 6.662l.121.428.031.112.008.028.002.007v.002l.964-.27.963-.27-.001-.003a.37.37 0 01-.01-.036l-.032-.113-.122-.43a497.225 497.225 0 00-1.95-6.69c-1.177-3.93-2.616-8.531-3.626-11.056l-1.857.742zm6.635 17.855c.203.98.203.98.204.979h.002l.004-.001.011-.003.036-.008a8.282 8.282 0 00.528-.145c.343-.106.817-.274 1.365-.525 1.091-.5 2.5-1.345 3.728-2.716 2.525-2.819 4.053-7.594 1.213-15.378l-1.88.685c2.649 7.258 1.101 11.21-.823 13.359-.995 1.111-2.153 1.81-3.072 2.232-.458.21-.85.348-1.123.433a6.19 6.19 0 01-.384.106l-.014.003h-.001.002l.204.979zm6.706-16.622c2.376-1.585 3.75-2.944 4.54-3.947.396-.502.645-.914.8-1.22a3.907 3.907 0 00.211-.496l.013-.044.005-.017a.375.375 0 01.003-.011v-.002c.001 0 .001-.001-.966-.256s-.966-.256-.966-.257v-.001l.001-.003.001-.006.003-.008.002-.007-.008.02c-.011.03-.036.092-.082.183a5.457 5.457 0 01-.587.887c-.637.808-1.845 2.03-4.08 3.52l1.11 1.665zm4.606-4.993h10.65v-2h-10.65v2zm10.18-.117l28.975 15.384.938-1.767-28.975-15.384-.938 1.767z" fill="#1C1C1C" mask="url(#a)"/><path d="M38.043 57.019l6.246 7.023s6.439-4.25 1.213-10.753l-4.527-5.404-2.932 9.134z" fill="#fff" stroke="#EFDB24" stroke-miterlimit="10"/><path d="M36.409 60.11l2.427 2.936a2.885 2.885 0 104.458-3.665l-2.427-2.942-4.458 3.67z" fill="#EFDB24"/><path d="M32.124 58.177l7.256 8.163s7.46-4.953 1.412-12.497l-5.265-6.28-3.403 10.614z" fill="#fff" stroke="#EFDB24" stroke-miterlimit="10"/><path d="M31.699 60.961l2.427 2.937a2.886 2.886 0 104.457-3.665l-2.427-2.937L31.7 60.96z" fill="#EFDB24"/><path d="M27.642 55.577l7.925 8.916s8.088-5.374 1.486-13.636a989.296 989.296 0 00-7.47-2.972l-1.941 7.692z" fill="#fff" stroke="#EFDB24" stroke-miterlimit="10"/><path d="M27.741 59.079l2.427 2.937a2.887 2.887 0 004.458-3.67l-2.427-2.937-4.458 3.67z" fill="#EFDB24"/><path d="M37.617 51.734s12.299 8.677 27.995 2.308c15.696-6.37-13.834-14.364-13.834-14.364l-11.09 5.82-3.07 6.236z" fill="#1C1C1C" stroke="#1C1C1C" stroke-miterlimit="10"/><path d="M48.033 12.348L17.82 67.326a33.615 33.615 0 006.305 2.69l27.9-50.809m.001 0l6.448-11.743-5.968-3.26-4.473 8.143M16.963 69.95l-.495 7.534 6.37-4.784a34 34 0 01-5.875-2.75z" fill="#1C1C1C"/><path d="M80 47.672c-6.593 1.318-11.204 6.147-14.824 6.37-11.749.327-14.493-8.564-17.128-6.934s-14.715 9.44-17.79 4.061C27.18 45.79 44.754 32.348 44.754 32.348" fill="#fff"/><path d="M80 47.672c-6.593 1.318-11.204 6.147-14.824 6.37-11.749.327-14.493-8.564-17.128-6.934s-14.715 9.44-17.79 4.061C27.18 45.79 44.754 32.348 44.754 32.348" stroke="#1C1C1C" stroke-linecap="round" stroke-linejoin="round"/><path d="M36.156 44.066l-3.15 2.145a2.879 2.879 0 103.24 4.76l3.15-2.145-3.24-4.76zM16.2 46.964l.991 3.685a2.882 2.882 0 005.567-1.486l-.99-3.68-5.567 1.48z" fill="#EFDB24"/><path d="M21.58 36.335a11.155 11.155 0 005.716 1.367m3.234-8.079a6.512 6.512 0 001.926 2.898" stroke="#EFDB24" stroke-linecap="round" stroke-linejoin="round"/><path d="M59.514 6.087l.337-.614a3.59 3.59 0 10-6.28-3.467l-.337.614 6.28 3.467z" fill="#179BD7"/><path d="M44.755 32.373a14.25 14.25 0 017.32-1.982" stroke="#EFDB24" stroke-miterlimit="10" stroke-linecap="round"/><path d="M36.597 32.64L29.48 45.725" stroke="#EFDB24" stroke-miterlimit="10" stroke-linecap="round" stroke-dasharray="2 2"/></svg>